<?xml version="1.0" standalone="no"?><!DOCTYPE svg PUBLIC "-//W3C//DTD SVG 1.1//EN" "http://www.w3.org/Graphics/SVG/1.1/DTD/svg11.dtd"><svg t="1684745444007" class="icon" viewBox="0 0 1024 1024" version="1.1" xmlns="http://www.w3.org/2000/svg" p-id="2052" xmlns:xlink="http://www.w3.org/1999/xlink" width="200" height="200"><path d="M64 512a448 448 0 1 1 448 448 448.512 448.512 0 0 1-448-448z m75.968 0A372.032 372.032 0 1 0 512 139.968 372.416 372.416 0 0 0 139.968 512z m303.168 145.664l-124.672-172.8a8 8 0 0 1 6.4-12.8h46.912a32 32 0 0 1 25.92 13.312L468.992 584.32l157.184-218.048a32 32 0 0 1 25.6-13.312h46.912a8 8 0 0 1 6.4 12.8l-210.304 291.904a32 32 0 0 1-51.648 0z" fill="#000000" fill-opacity="0.65" p-id="2053"></path></svg>