<?xml version="1.0" standalone="no"?><!DOCTYPE svg PUBLIC "-//W3C//DTD SVG 1.1//EN" "http://www.w3.org/Graphics/SVG/1.1/DTD/svg11.dtd"><svg t="1684745434690" class="icon" viewBox="0 0 1024 1024" version="1.1" xmlns="http://www.w3.org/2000/svg" p-id="1913" xmlns:xlink="http://www.w3.org/1999/xlink" width="200" height="200"><path d="M854.016 864H169.984a32 32 0 0 1-32-32V633.984a8 8 0 0 1 8-8h60.032a8 8 0 0 1 7.936 8v154.048h596.032V633.984a8 8 0 0 1 8-8h59.968a8 8 0 0 1 8 8V832a32 32 0 0 1-31.936 32zM512 664.064a7.872 7.872 0 0 1-6.4-3.072L393.984 519.168a7.872 7.872 0 0 1-0.896-8.384 8 8 0 0 1 7.232-4.544h73.6V168a8 8 0 0 1 7.936-8h60.032a8 8 0 0 1 8 8v338.432h74.048a8 8 0 0 1 7.232 4.544 7.872 7.872 0 0 1-0.896 8.384l-112 141.632a7.872 7.872 0 0 1-6.272 3.072z" fill="#000000" fill-opacity="0.65" p-id="1914"></path></svg>