<?xml version="1.0" standalone="no"?><!DOCTYPE svg PUBLIC "-//W3C//DTD SVG 1.1//EN" "http://www.w3.org/Graphics/SVG/1.1/DTD/svg11.dtd"><svg t="1684745463714" class="icon" viewBox="0 0 1024 1024" version="1.1" xmlns="http://www.w3.org/2000/svg" p-id="2608" xmlns:xlink="http://www.w3.org/1999/xlink" width="200" height="200"><path d="M940.769612 936.899992a446.883152 446.883152 0 0 0-170.810661-321.668897l-6.011308-4.156755a36.003894 36.003894 0 0 0-18.865273-5.307856 30.823938 30.823938 0 0 0-36.643395 29.608886 36.003894 36.003894 0 0 0 13.365566 27.818284l5.307857 3.773055a347.312879 347.312879 0 0 1 140.690174 270.380934v4.348605a36.579445 36.579445 0 0 0 73.09494 2.046403h0.44765z m-117.796046-612.194106a333.947312 333.947312 0 0 0-667.510924 0 326.145403 326.145403 0 0 0 119.266897 252.155162 449.569055 449.569055 0 0 0-237.062942 364.51545l-0.383701 6.395008a1.151101 1.151101 0 0 0 0 0.3837v1.470852a31.079738 31.079738 0 0 0 62.031577 0v-0.959251h0.3837l0.511601-6.395008a381.718021 381.718021 0 0 1 235.464191-325.441952 395.147538 395.147538 0 0 0 153.480189 37.346846 334.331013 334.331013 0 0 0 144.527179-32.93429l33.765641-19.632675 27.690384-18.161822a326.529103 326.529103 0 0 0 127.900158-258.93387zM489.026254 587.924412a261.427923 261.427923 0 1 1 266.607879-263.282476 265.264928 265.264928 0 0 1-266.607879 263.282476z m0 0" fill="#595959" p-id="2609"></path></svg>