<?xml version="1.0" standalone="no"?><!DOCTYPE svg PUBLIC "-//W3C//DTD SVG 1.1//EN" "http://www.w3.org/Graphics/SVG/1.1/DTD/svg11.dtd"><svg t="1684745458090" class="icon" viewBox="0 0 1024 1024" version="1.1" xmlns="http://www.w3.org/2000/svg" p-id="2469" xmlns:xlink="http://www.w3.org/1999/xlink" width="200" height="200"><path d="M880 912H144a32 32 0 0 1-32-32V144a32 32 0 0 1 32-32H704v2.688a63.488 63.488 0 0 1 26.688 16l162.624 162.624a63.232 63.232 0 0 1 18.752 45.184v541.504a32 32 0 0 1-32.064 32zM184 184v656h656V341.824L704 205.76V320a32 32 0 0 1-32 32h-320A32 32 0 0 1 320 320V184z m200 0V288h256V184z m128 545.984a144 144 0 1 1 144-144A144.192 144.192 0 0 1 512 729.984z m0-224a80 80 0 1 0 80 80A80.064 80.064 0 0 0 512 505.984z" fill="#000000" fill-opacity="0.65" p-id="2470"></path></svg>