<?xml version="1.0" standalone="no"?><!DOCTYPE svg PUBLIC "-//W3C//DTD SVG 1.1//EN" "http://www.w3.org/Graphics/SVG/1.1/DTD/svg11.dtd"><svg t="1684745454057" class="icon" viewBox="0 0 1024 1024" version="1.1" xmlns="http://www.w3.org/2000/svg" p-id="2330" xmlns:xlink="http://www.w3.org/1999/xlink" width="200" height="200"><path d="M511.936 959.872a448.768 448.768 0 0 1-79.552-7.168l-2.624-0.448a32 32 0 0 1-25.6-25.6l-15.808-85.44a347.776 347.776 0 0 1-98.944-57.6l-81.92 29.12a32 32 0 0 1-35.136-9.536l-1.792-2.112a445.824 445.824 0 0 1-80-137.792l-0.832-2.56a32 32 0 0 1 9.28-35.2l66.304-56.64a355.84 355.84 0 0 1 0-114.176l-66.304-56.576a32.32 32.32 0 0 1-9.28-35.2l0.896-2.624a446.72 446.72 0 0 1 79.68-137.856l1.792-2.112a32 32 0 0 1 35.136-9.28l81.92 29.056a352 352 0 0 1 98.944-57.6l15.808-85.44a32 32 0 0 1 25.6-25.6l2.88-0.576a452.48 452.48 0 0 1 159.04 0l2.688 0.512a32 32 0 0 1 25.6 25.6l15.68 84.992a352.384 352.384 0 0 1 99.712 57.6l81.536-28.544a32 32 0 0 1 35.072 9.472l1.792 2.112a442.816 442.816 0 0 1 79.744 137.92l0.896 2.624a32 32 0 0 1-9.344 35.2l-65.472 55.872a356.032 356.032 0 0 1 0 115.584l65.472 56a32 32 0 0 1 9.344 35.008l-0.896 2.56a445.44 445.44 0 0 1-79.744 137.92l-1.792 2.112a32 32 0 0 1-24.448 11.328 32 32 0 0 1-10.688-1.792l-81.344-28.928a349.952 349.952 0 0 1-99.712 57.6l-15.68 84.992a32 32 0 0 1-25.6 25.6l-2.688 0.448a445.504 445.504 0 0 1-79.616 7.168z m-208.448-257.472l31.36 25.6a280.384 280.384 0 0 0 78.72 46.272l37.76 14.528 17.92 97.152a374.656 374.656 0 0 0 84.992 0l17.92-97.024 38.08-14.272a281.024 281.024 0 0 0 79.168-46.016l31.424-25.6 92.8 32.896a375.168 375.168 0 0 0 42.624-73.6l-74.688-64 6.4-40.064a281.6 281.6 0 0 0 0-92.224l-6.4-39.936 74.688-64a380.864 380.864 0 0 0-42.56-73.6l-92.288 32.896-31.424-25.6a280.96 280.96 0 0 0-79.232-45.76l-38.4-14.272-17.92-97.28a374.656 374.656 0 0 0-84.992 0l-17.92 97.216-37.888 14.272a278.912 278.912 0 0 0-78.656 45.696l-31.36 25.92-93.44-33.216a372.032 372.032 0 0 0-42.56 73.6l75.392 64.512-6.4 40a278.656 278.656 0 0 0-3.84 45.376 291.008 291.008 0 0 0 3.712 45.504l6.4 40-75.328 64.704a375.488 375.488 0 0 0 42.56 73.792l93.376-33.408zM512 678.272a176 176 0 1 1 176-175.936A176.192 176.192 0 0 1 512 678.272z m0-288a112.064 112.064 0 1 0 79.232 32.832A111.296 111.296 0 0 0 512 390.272z" fill="#000000" fill-opacity="0.65" p-id="2331"></path></svg>