<?xml version="1.0" standalone="no"?><!DOCTYPE svg PUBLIC "-//W3C//DTD SVG 1.1//EN" "http://www.w3.org/Graphics/SVG/1.1/DTD/svg11.dtd"><svg t="1684745448964" class="icon" viewBox="0 0 1024 1024" version="1.1" xmlns="http://www.w3.org/2000/svg" p-id="2191" xmlns:xlink="http://www.w3.org/1999/xlink" width="200" height="200"><path d="M854.016 863.936H169.984a32 32 0 0 1-32-32V633.984a8 8 0 0 1 8-7.936h60.032a7.936 7.936 0 0 1 7.936 7.936v154.048h596.032V633.984a8 8 0 0 1 8-7.936h59.968a8 8 0 0 1 8 7.936v197.952a32 32 0 0 1-31.936 32z m-312.128-199.936h-60.032a8 8 0 0 1-7.936-8V317.696H400a7.872 7.872 0 0 1-7.232-4.48 8.064 8.064 0 0 1 1.216-8.512l111.744-141.696a7.936 7.936 0 0 1 12.8 0l112 141.824a7.872 7.872 0 0 1 0.896 8.384 8 8 0 0 1-7.232 4.544H549.888v338.24a8 8 0 0 1-8 8z" fill="#000000" fill-opacity="0.65" p-id="2192"></path></svg>